<svg xmlns="http://www.w3.org/2000/svg" viewBox="0 0 523.28 169.48"><defs><style>.cls-1{fill:#52bcb9;}</style></defs><g id="Layer_2" data-name="Layer 2"><g id="Layer_4" data-name="Layer 4"><path class="cls-1" d="M43.21,61.42l26-15.15a19.94,19.94,0,0,1,20.09,0l25.4,14.88c10.2-5.89,20.27-11.05,30.49-17a5.24,5.24,0,0,0,0-9.07C125.9,24.05,107,13.05,87.65,2,83.44-.39,76.25-.93,71.13,2L12.89,35.28a5.1,5.1,0,0,0-.09,8.82C22.87,49.91,33.14,55.6,43.21,61.42Z"/><path class="cls-1" d="M118.69,67.52q-.12,15.14-.25,30.26A19.94,19.94,0,0,1,108.17,115L81.88,129.59v34.64c0,4,3.84,6.54,7.35,4.56,19.39-10.93,38.5-21.59,57.85-32.57,4.23-2.4,8.36-8.3,8.46-14.2l1.1-67.08a5.05,5.05,0,0,0-7.53-4.49Z"/><path class="cls-1" d="M74.48,129.5,48,114.54A20,20,0,0,1,37.83,97.18l0-30.08L7.82,50A5.24,5.24,0,0,0,0,54.57C.16,76.83.22,98.71.44,121c0,4.86,3.21,11.33,8.33,14.28L66.9,168.72a5.06,5.06,0,0,0,7.58-4.42C74.42,152.68,74.54,141.13,74.48,129.5Z"/><path class="cls-1" d="M212.86,83.8a3.28,3.28,0,0,1-3.36-3.36,3.37,3.37,0,0,1,1-2.49,3.23,3.23,0,0,1,2.4-1h24.49a3.23,3.23,0,0,1,2.4,1,3.37,3.37,0,0,1,1,2.49,3.28,3.28,0,0,1-3.36,3.36Zm23.91,46.84a16.44,16.44,0,0,1-9.07-2.54,17.87,17.87,0,0,1-6.29-7,21.57,21.57,0,0,1-2.3-10.13V61.2a4.08,4.08,0,0,1,1-2.85,3.38,3.38,0,0,1,2.64-1.12,3.52,3.52,0,0,1,2.69,1.12,3.94,3.94,0,0,1,1.06,2.85V111a12.47,12.47,0,0,0,2.88,8.5,9.34,9.34,0,0,0,7.39,3.31h2.59a3.15,3.15,0,0,1,2.5,1.12,4.24,4.24,0,0,1,1,2.85,3.62,3.62,0,0,1-1.15,2.8,4,4,0,0,1-2.88,1.07Z"/><path class="cls-1" d="M260,64.35a4.83,4.83,0,0,1-3.65-1.63,5.53,5.53,0,0,1-1.54-4,5.25,5.25,0,0,1,5.28-5.5,5.14,5.14,0,0,1,3.6,1.48,5.23,5.23,0,0,1,1.59,4,5.53,5.53,0,0,1-1.54,4A4.93,4.93,0,0,1,260,64.35Zm.09,66.29a3.54,3.54,0,0,1-2.73-1.07,4,4,0,0,1-1-2.9V78.92a4,4,0,0,1,1-2.91,3.58,3.58,0,0,1,2.73-1.07A3.47,3.47,0,0,1,262.74,76a4,4,0,0,1,1,2.91v47.75a4,4,0,0,1-1,2.9A3.43,3.43,0,0,1,260.1,130.64Z"/><path class="cls-1" d="M286.31,130.64a3.54,3.54,0,0,1-2.73-1.07,3.91,3.91,0,0,1-1-2.8V78.92a4.13,4.13,0,0,1,1-2.86,3.51,3.51,0,0,1,2.73-1.12A3.44,3.44,0,0,1,289,76.06a4.12,4.12,0,0,1,1,2.86v47.85a3.9,3.9,0,0,1-1,2.8A3.47,3.47,0,0,1,286.31,130.64Zm33.71,0a3.59,3.59,0,0,1-2.69-1.07,3.78,3.78,0,0,1-1.06-2.8V97.45q0-7.23-3.55-11.46a11.4,11.4,0,0,0-9.12-4.22,12.8,12.8,0,0,0-9.8,4.12A15.13,15.13,0,0,0,290,96.63h-5.28a27.07,27.07,0,0,1,2.74-11.55,19.77,19.77,0,0,1,7-7.9,19,19,0,0,1,20,0,19.18,19.18,0,0,1,6.82,8,28.41,28.41,0,0,1,2.45,12.22v29.32a3.91,3.91,0,0,1-1,2.8A3.46,3.46,0,0,1,320,130.64Zm33.51,0a3.59,3.59,0,0,1-2.69-1.07,3.78,3.78,0,0,1-1.06-2.8V97.45q0-7.23-3.55-11.46a11.4,11.4,0,0,0-9.12-4.22A12.53,12.53,0,0,0,327.36,86q-3.8,4.23-3.69,11.25H317a26.58,26.58,0,0,1,2.78-12,19.66,19.66,0,0,1,18.06-10.9,18,18,0,0,1,10,2.85,19.18,19.18,0,0,1,6.82,8,28.41,28.41,0,0,1,2.44,12.22v29.32a3.9,3.9,0,0,1-1,2.8A3.46,3.46,0,0,1,353.53,130.64Z"/><path class="cls-1" d="M400.09,131.15a25.4,25.4,0,0,1-13.49-3.66,26.49,26.49,0,0,1-9.5-10,29.86,29.86,0,0,1-3.6-14.31V55.09a4.06,4.06,0,0,1,1-2.9,3.58,3.58,0,0,1,2.74-1.07,3.43,3.43,0,0,1,2.64,1.07,4.06,4.06,0,0,1,1,2.9V85A23.81,23.81,0,0,1,401,74.43a24.22,24.22,0,0,1,13.25,3.72,26.49,26.49,0,0,1,9.26,10.13,30.38,30.38,0,0,1,3.41,14.46,29.92,29.92,0,0,1-3.5,14.56,26.73,26.73,0,0,1-9.56,10.14A25.66,25.66,0,0,1,400.09,131.15Zm0-7.13a18.26,18.26,0,0,0,10-2.8,19.81,19.81,0,0,0,7-7.58,24.53,24.53,0,0,0,0-21.74,19.35,19.35,0,0,0-7-7.59,18.57,18.57,0,0,0-10-2.75,18.37,18.37,0,0,0-9.89,2.75,18.94,18.94,0,0,0-6.91,7.59,24.88,24.88,0,0,0,0,21.74,19.38,19.38,0,0,0,6.91,7.58A18.07,18.07,0,0,0,400.09,124Z"/><path class="cls-1" d="M464.52,131.15a24.17,24.17,0,0,1-13.25-3.71A26.4,26.4,0,0,1,442,117.3a30.32,30.32,0,0,1-3.41-14.46,29.84,29.84,0,0,1,3.51-14.56,26.67,26.67,0,0,1,9.55-10.13,26.76,26.76,0,0,1,27.22,0,26.88,26.88,0,0,1,9.51,10.13,30.8,30.8,0,0,1,3.6,14.56l-3,2.45a26.89,26.89,0,0,1-3.22,13.19,24.53,24.53,0,0,1-8.73,9.26A23.3,23.3,0,0,1,464.52,131.15Zm.76-7.13a18.19,18.19,0,0,0,9.94-2.75,19.52,19.52,0,0,0,6.92-7.58,24.53,24.53,0,0,0,0-21.74,20,20,0,0,0-6.92-7.59,19,19,0,0,0-19.83,0,20.17,20.17,0,0,0-7,7.59,24,24,0,0,0,0,21.74,19.63,19.63,0,0,0,7,7.58A18.31,18.31,0,0,0,465.28,124Zm23,6.62a3.6,3.6,0,0,1-2.69-1.07,3.81,3.81,0,0,1-1.05-2.8V109.36l1.82-8,5.67,1.52v23.93a3.82,3.82,0,0,1-1.06,2.8A3.59,3.59,0,0,1,488.23,130.64Z"/><path class="cls-1" d="M517.71,130.64a11.22,11.22,0,0,1-6.87-2.24,14.59,14.59,0,0,1-4.7-6.21,23.35,23.35,0,0,1-1.68-9.16V55a3.87,3.87,0,0,1,1-2.8,3.79,3.79,0,0,1,5.28,0,3.91,3.91,0,0,1,1,2.8v58a13.47,13.47,0,0,0,1.68,7.12,4.91,4.91,0,0,0,4.27,2.75h2.4a2.8,2.8,0,0,1,2.3,1.07,4.32,4.32,0,0,1,.87,2.8,3.56,3.56,0,0,1-1.2,2.8,4.48,4.48,0,0,1-3.12,1.07Z"/></g></g></svg>